<?xml version="1.0" standalone="no"?>
<!DOCTYPE svg PUBLIC "-//W3C//DTD SVG 20010904//EN"
 "http://www.w3.org/TR/2001/REC-SVG-20010904/DTD/svg10.dtd">
<svg version="1.0" xmlns="http://www.w3.org/2000/svg"
 width="800.000000pt" height="800.000000pt" viewBox="0 0 800.000000 800.000000"
 preserveAspectRatio="xMidYMid meet">
<metadata>
Created by potrace 1.14, written by Peter Selinger 2001-2017
</metadata>
<g transform="translate(0.000000,800.000000) scale(0.100000,-0.100000)"
fill="#000000" stroke="none">
<path d="M1530 7984 c-212 -45 -391 -218 -445 -429 -13 -52 -15 -458 -15
-3555 0 -3097 2 -3503 15 -3555 55 -213 234 -385 450 -430 106 -22 4824 -22
4930 0 216 45 395 217 450 430 13 52 15 458 15 3555 0 3097 -2 3503 -15 3555
-55 213 -234 385 -450 430 -103 21 -4835 21 -4935 -1z m4905 -229 c114 -30
195 -102 241 -213 l24 -57 0 -3485 0 -3485 -24 -57 c-30 -73 -74 -128 -134
-166 -102 -66 77 -62 -2542 -62 -2619 0 -2440 -4 -2542 62 -60 38 -104 93
-134 166 l-24 57 0 3485 0 3485 24 57 c30 73 74 128 134 167 100 64 -76 60
2537 60 2119 1 2387 -1 2440 -14z"/>
<path d="M2490 7311 c-76 -23 -155 -97 -193 -179 -22 -46 -22 -56 -22 -552 l0
-505 27 -81 c33 -95 90 -189 160 -261 l50 -51 -58 -12 c-193 -38 -311 -88
-418 -176 -111 -92 -202 -235 -242 -379 -25 -92 -30 -305 -10 -385 40 -156
167 -285 321 -325 89 -23 1571 -23 1660 0 164 43 292 182 325 353 16 79 8 274
-14 357 -56 205 -200 380 -390 474 -76 38 -122 52 -269 81 l-58 12 50 53 c74
78 125 163 157 262 l29 88 0 275 0 275 -28 53 -27 52 27 53 c27 51 28 57 31
244 3 160 1 196 -12 222 -32 62 -25 61 -573 60 -274 0 -509 -4 -523 -8z m851
-700 c24 -19 24 -23 27 -225 2 -117 -1 -230 -8 -263 -24 -133 -113 -248 -238
-310 -74 -37 -79 -38 -186 -38 -104 0 -115 2 -179 32 -79 38 -163 114 -200
181 -48 89 -57 147 -57 380 0 213 0 213 25 237 l24 25 384 0 c364 0 386 -1
408 -19z m-291 -1097 c0 -33 -24 -79 -52 -98 -12 -9 -41 -16 -63 -16 -22 0
-51 7 -63 16 -28 19 -52 65 -52 98 l0 24 115 0 115 0 0 -24z m-422 -170 c28
-55 97 -120 162 -152 47 -23 67 -27 145 -27 78 0 97 4 147 28 94 46 172 141
192 233 l7 31 72 -13 c227 -42 343 -109 431 -248 61 -96 71 -136 71 -293 l0
-141 -30 -44 c-17 -23 -51 -54 -75 -68 l-45 -25 -740 -3 c-510 -2 -756 0 -791
8 -60 13 -116 56 -147 113 -19 36 -22 57 -21 152 0 134 25 224 85 315 80 119
196 187 381 224 l113 22 11 -36 c7 -20 21 -54 32 -76z"/>
<path d="M4487 7269 c-39 -30 -53 -85 -34 -131 9 -20 28 -45 43 -55 27 -17 72
-18 804 -21 426 -2 794 0 818 3 27 4 55 17 75 35 28 25 32 35 32 80 0 46 -4
55 -33 81 l-32 29 -824 0 c-815 0 -824 0 -849 -21z"/>
<path d="M4526 6820 c-88 -27 -111 -143 -39 -200 25 -19 40 -20 498 -20 461 0
473 0 498 21 39 30 53 85 34 131 -31 75 -18 73 -517 75 -245 1 -458 -2 -474
-7z"/>
<path d="M4502 5070 c-18 -11 -40 -35 -49 -55 -23 -48 -5 -108 40 -135 31 -19
57 -20 847 -20 896 0 842 -4 875 60 20 38 19 75 -2 111 -36 61 -4 59 -880 59
-779 0 -799 -1 -831 -20z"/>
<path d="M4520 4613 c-30 -11 -70 -57 -76 -89 -8 -42 20 -100 57 -119 43 -23
1626 -22 1669 0 55 28 75 98 44 156 -31 61 -7 59 -881 58 -439 0 -805 -3 -813
-6z"/>
<path d="M1954 3870 c-37 -15 -64 -59 -64 -104 0 -103 117 -151 191 -80 91 87
-9 232 -127 184z"/>
<path d="M2574 3870 c-57 -23 -84 -117 -48 -168 38 -55 -77 -52 1844 -52 1946
0 1812 -4 1845 60 19 37 19 73 0 110 -33 64 102 60 -1847 59 -975 0 -1783 -4
-1794 -9z"/>
<path d="M1953 3165 c-38 -16 -63 -60 -63 -111 0 -52 53 -104 106 -104 88 0
146 81 111 155 -18 38 -69 75 -102 75 -11 -1 -34 -7 -52 -15z"/>
<path d="M2574 3166 c-43 -19 -64 -53 -64 -104 0 -37 6 -50 34 -78 l34 -34
1789 0 c1969 0 1814 -5 1848 60 20 38 19 75 -2 111 -37 63 92 59 -1845 59
-1463 -1 -1768 -3 -1794 -14z"/>
<path d="M1944 2459 c-28 -14 -54 -61 -54 -99 0 -126 168 -159 217 -42 19 46
5 101 -34 131 -28 23 -92 27 -129 10z"/>
<path d="M2541 2439 c-26 -26 -31 -38 -31 -78 0 -60 26 -96 78 -111 50 -14
3503 -14 3553 0 56 16 84 52 84 112 0 43 -4 53 -33 79 l-32 29 -1794 0 -1794
0 -31 -31z"/>
<path d="M1924 1736 c-28 -28 -34 -41 -34 -78 0 -50 19 -82 62 -104 63 -33
151 11 164 82 8 42 -20 100 -57 119 -49 26 -97 19 -135 -19z"/>
<path d="M2544 1736 c-28 -28 -34 -41 -34 -78 0 -50 18 -82 60 -103 43 -22
3542 -23 3595 -1 58 25 81 96 50 156 -33 64 102 60 -1856 60 l-1781 0 -34 -34z"/>
<path d="M1954 1056 c-44 -19 -64 -53 -64 -104 0 -37 6 -50 34 -78 27 -27 42
-34 72 -34 113 0 162 122 80 199 -30 28 -82 35 -122 17z"/>
<path d="M2563 1050 c-40 -24 -53 -48 -53 -100 0 -34 6 -48 34 -76 l34 -34
1780 0 c1133 0 1790 4 1806 10 32 12 66 65 66 103 0 16 -8 42 -17 58 -37 63
92 59 -1850 59 -1733 0 -1769 0 -1800 -20z"/>
</g>
</svg>
